<svg xmlns="http://www.w3.org/2000/svg" viewBox="0 0 24 24">
  <rect x="2" y="4" width="20" height="16" rx="4" fill="#e2b714"/>
  <g fill="#111111">
    <rect x="5" y="7" width="2" height="2" rx="0.5"/>
    <rect x="8" y="7" width="2" height="2" rx="0.5"/>
    <rect x="11" y="7" width="2" height="2" rx="0.5"/>
    <rect x="14" y="7" width="2" height="2" rx="0.5"/>
    <rect x="17" y="7" width="2" height="2" rx="0.5"/>
    
    <rect x="5" y="10" width="2" height="2" rx="0.5"/>
    <rect x="8" y="10" width="2" height="2" rx="0.5"/>
    <rect x="11" y="10" width="2" height="2" rx="0.5"/>
    <rect x="14" y="10" width="2" height="2" rx="0.5"/>
    <rect x="17" y="10" width="2" height="2" rx="0.5"/>
    
    <rect x="5" y="13" width="2" height="2" rx="0.5"/>
    <rect x="8" y="11" width="11" height="2" rx="0.5" transform="translate(0, 2)"/>
  </g>
</svg>
